<svg width="316" height="91" viewBox="0 0 316 91" fill="none" xmlns="http://www.w3.org/2000/svg">
<rect x="72" y="14" width="244" height="64" fill="#3F3F3F"/>
<circle cx="45.5" cy="45.5" r="45.5" fill="#66932F"/>
<path d="M44 17.8335C38.7158 17.8335 34.4167 22.1326 34.4167 27.4168V33.1668H32.5C30.384 33.1668 28.6667 34.8842 28.6667 37.0002V52.3335C28.6667 54.4495 30.384 56.1668 32.5 56.1668H36.3333H42.0833H45.9167H49.75H55.5C57.616 56.1668 59.3333 54.4495 59.3333 52.3335V37.0002C59.3333 34.8842 57.616 33.1668 55.5 33.1668H53.5833V27.4168C53.5833 22.1326 49.2843 17.8335 44 17.8335ZM38.25 27.4168C38.25 24.2467 40.8298 21.6668 44 21.6668C47.1702 21.6668 49.75 24.2467 49.75 27.4168V33.1668H38.25V27.4168ZM45.9167 47.9692V52.3335H42.0833V47.9692C40.6899 47.1604 39.8428 45.5198 40.2836 43.7066C40.6209 42.3266 41.7786 41.2111 43.1701 40.9217C45.6503 40.4003 47.8333 42.2768 47.8333 44.6668C47.8333 46.0833 47.059 47.3061 45.9167 47.9692Z" fill="white"/>
<path d="M34.8578 62.728C35.5618 62.728 36.1698 62.8027 36.6818 62.952C37.1938 63.0907 37.6364 63.2613 38.0098 63.464L37.4658 65.24C37.0498 65.0267 36.6284 64.8613 36.2018 64.744C35.7858 64.616 35.3858 64.552 35.0018 64.552C34.5111 64.552 34.1378 64.6427 33.8818 64.824C33.6258 65.0053 33.4978 65.2453 33.4978 65.544C33.4978 65.8853 33.6204 66.136 33.8658 66.296C34.1111 66.4453 34.4898 66.6053 35.0018 66.776L35.9458 67.08C36.3191 67.208 36.6658 67.368 36.9858 67.56C37.3058 67.7413 37.5778 67.9547 37.8018 68.2C38.0364 68.4453 38.2178 68.7227 38.3458 69.032C38.4738 69.3413 38.5378 69.6773 38.5378 70.04C38.5378 70.4667 38.4578 70.872 38.2978 71.256C38.1378 71.6293 37.8924 71.96 37.5618 72.248C37.2418 72.536 36.8311 72.7653 36.3298 72.936C35.8391 73.096 35.2578 73.176 34.5858 73.176C33.9564 73.176 33.3538 73.112 32.7778 72.984C32.2124 72.8453 31.6898 72.6533 31.2098 72.408L31.7538 70.632C32.2124 70.856 32.6604 71.032 33.0978 71.16C33.5351 71.288 33.9938 71.352 34.4738 71.352C35.0391 71.352 35.4444 71.2613 35.6898 71.08C35.9458 70.888 36.0738 70.632 36.0738 70.312C36.0738 70.2053 36.0524 70.0987 36.0098 69.992C35.9671 69.8853 35.8818 69.7787 35.7538 69.672C35.6364 69.5653 35.4658 69.464 35.2418 69.368C35.0284 69.2613 34.7511 69.1547 34.4098 69.048L33.6258 68.776C33.2524 68.6373 32.9058 68.4827 32.5858 68.312C32.2658 68.1413 31.9884 67.9387 31.7538 67.704C31.5298 67.4693 31.3538 67.1973 31.2258 66.888C31.0978 66.5787 31.0338 66.2107 31.0338 65.784C31.0338 65.3467 31.1138 64.9413 31.2738 64.568C31.4444 64.1947 31.6898 63.8747 32.0098 63.608C32.3404 63.3307 32.7404 63.1173 33.2098 62.968C33.6898 62.808 34.2391 62.728 34.8578 62.728ZM42.5734 62.728C43.2774 62.728 43.8854 62.8027 44.3974 62.952C44.9094 63.0907 45.352 63.2613 45.7254 63.464L45.1814 65.24C44.7654 65.0267 44.344 64.8613 43.9174 64.744C43.5014 64.616 43.1014 64.552 42.7174 64.552C42.2267 64.552 41.8534 64.6427 41.5974 64.824C41.3414 65.0053 41.2134 65.2453 41.2134 65.544C41.2134 65.8853 41.336 66.136 41.5814 66.296C41.8267 66.4453 42.2054 66.6053 42.7174 66.776L43.6614 67.08C44.0347 67.208 44.3814 67.368 44.7014 67.56C45.0214 67.7413 45.2934 67.9547 45.5174 68.2C45.752 68.4453 45.9334 68.7227 46.0614 69.032C46.1894 69.3413 46.2534 69.6773 46.2534 70.04C46.2534 70.4667 46.1734 70.872 46.0134 71.256C45.8534 71.6293 45.608 71.96 45.2774 72.248C44.9574 72.536 44.5467 72.7653 44.0454 72.936C43.5547 73.096 42.9734 73.176 42.3014 73.176C41.672 73.176 41.0694 73.112 40.4934 72.984C39.928 72.8453 39.4054 72.6533 38.9254 72.408L39.4694 70.632C39.928 70.856 40.376 71.032 40.8134 71.16C41.2507 71.288 41.7094 71.352 42.1894 71.352C42.7547 71.352 43.16 71.2613 43.4054 71.08C43.6614 70.888 43.7894 70.632 43.7894 70.312C43.7894 70.2053 43.768 70.0987 43.7254 69.992C43.6827 69.8853 43.5974 69.7787 43.4694 69.672C43.352 69.5653 43.1814 69.464 42.9574 69.368C42.744 69.2613 42.4667 69.1547 42.1254 69.048L41.3414 68.776C40.968 68.6373 40.6214 68.4827 40.3014 68.312C39.9814 68.1413 39.704 67.9387 39.4694 67.704C39.2454 67.4693 39.0694 67.1973 38.9414 66.888C38.8134 66.5787 38.7494 66.2107 38.7494 65.784C38.7494 65.3467 38.8294 64.9413 38.9894 64.568C39.16 64.1947 39.4054 63.8747 39.7254 63.608C40.056 63.3307 40.456 63.1173 40.9254 62.968C41.4054 62.808 41.9547 62.728 42.5734 62.728ZM47.1154 62.92H49.5474V71.112H53.5314V73H47.1154V62.92Z" fill="white"/>
<path d="M126.282 39.92V41.808H123.53V50H121.098V41.808H118.41V39.92H126.282ZM126.678 39.92H129.11V45.952C129.11 46.7093 129.265 47.296 129.574 47.712C129.883 48.128 130.363 48.336 131.014 48.336C131.654 48.336 132.113 48.1333 132.39 47.728C132.678 47.312 132.822 46.784 132.822 46.144V39.92H135.254V45.936C135.254 48.7627 133.841 50.176 131.014 50.176C129.67 50.176 128.609 49.824 127.83 49.12C127.062 48.416 126.678 47.328 126.678 45.856V39.92ZM144.652 48.32C145.132 48.32 145.537 48.2773 145.868 48.192C146.199 48.1067 146.476 47.9947 146.7 47.856L147.18 49.6C146.967 49.728 146.62 49.856 146.14 49.984C145.671 50.112 145.089 50.176 144.396 50.176C143.607 50.176 142.881 50.0533 142.22 49.808C141.559 49.5627 140.993 49.216 140.524 48.768C140.055 48.3093 139.687 47.76 139.42 47.12C139.164 46.4693 139.036 45.744 139.036 44.944C139.036 44.1653 139.159 43.456 139.404 42.816C139.66 42.1653 140.017 41.616 140.476 41.168C140.945 40.7093 141.511 40.3573 142.172 40.112C142.844 39.856 143.596 39.728 144.428 39.728C145.132 39.728 145.703 39.7973 146.14 39.936C146.588 40.064 146.94 40.1973 147.196 40.336L146.652 42.112C146.407 41.9733 146.113 41.8507 145.772 41.744C145.441 41.6373 145.073 41.584 144.668 41.584C144.241 41.584 143.841 41.648 143.468 41.776C143.095 41.8933 142.769 42.0853 142.492 42.352C142.215 42.6187 141.996 42.9653 141.836 43.392C141.676 43.808 141.596 44.32 141.596 44.928C141.596 45.4933 141.671 45.9893 141.82 46.416C141.98 46.8427 142.199 47.2 142.476 47.488C142.753 47.7653 143.073 47.9733 143.436 48.112C143.809 48.2507 144.215 48.32 144.652 48.32ZM152.121 39.728C152.847 39.728 153.519 39.8507 154.137 40.096C154.756 40.3307 155.289 40.672 155.737 41.12C156.185 41.568 156.532 42.1173 156.777 42.768C157.033 43.4187 157.161 44.1547 157.161 44.976C157.161 45.776 157.028 46.496 156.761 47.136C156.505 47.776 156.148 48.3253 155.689 48.784C155.241 49.232 154.703 49.5787 154.073 49.824C153.455 50.0587 152.783 50.176 152.057 50.176C151.332 50.176 150.66 50.0587 150.041 49.824C149.423 49.5893 148.889 49.2533 148.441 48.816C147.993 48.368 147.641 47.824 147.385 47.184C147.14 46.5333 147.017 45.7973 147.017 44.976C147.017 44.176 147.145 43.456 147.401 42.816C147.657 42.1653 148.015 41.6107 148.473 41.152C148.932 40.6933 149.471 40.3413 150.089 40.096C150.719 39.8507 151.396 39.728 152.121 39.728ZM149.577 44.976C149.577 45.5413 149.641 46.0373 149.769 46.464C149.908 46.8907 150.095 47.2427 150.329 47.52C150.564 47.7973 150.831 48.0053 151.129 48.144C151.439 48.2827 151.769 48.352 152.121 48.352C152.463 48.352 152.783 48.2827 153.081 48.144C153.391 48.0053 153.657 47.7973 153.881 47.52C154.105 47.2427 154.281 46.8907 154.409 46.464C154.537 46.0373 154.601 45.5413 154.601 44.976C154.601 44.3893 154.532 43.8827 154.393 43.456C154.265 43.0187 154.084 42.6613 153.849 42.384C153.615 42.1067 153.343 41.8987 153.033 41.76C152.735 41.6213 152.409 41.552 152.057 41.552C151.716 41.552 151.391 41.6267 151.081 41.776C150.783 41.9147 150.521 42.128 150.297 42.416C150.073 42.704 149.897 43.0613 149.769 43.488C149.641 43.9147 149.577 44.4107 149.577 44.976ZM158.681 39.92H161.721L162.809 43.456C162.883 43.6693 162.958 43.92 163.033 44.208C163.118 44.4853 163.198 44.7787 163.273 45.088C163.358 45.3867 163.433 45.6907 163.497 46C163.571 46.3093 163.63 46.5973 163.673 46.864H163.753C163.795 46.576 163.854 46.2667 163.929 45.936C164.014 45.5947 164.094 45.2693 164.169 44.96C164.254 44.64 164.334 44.3467 164.409 44.08C164.483 43.8133 164.542 43.6053 164.585 43.456L165.641 39.92H168.681L169.401 50H167.129L166.953 46.592C166.931 46.272 166.915 45.9253 166.905 45.552C166.894 45.168 166.883 44.7787 166.873 44.384C166.873 43.9893 166.873 43.6 166.873 43.216C166.873 42.832 166.873 42.48 166.873 42.16H166.825C166.75 42.512 166.665 42.8747 166.569 43.248C166.483 43.6213 166.393 43.9947 166.297 44.368C166.201 44.7307 166.105 45.088 166.009 45.44C165.913 45.7813 165.817 46.096 165.721 46.384L164.601 50H162.777L161.609 46.4C161.513 46.1013 161.417 45.7813 161.321 45.44C161.225 45.088 161.129 44.7307 161.033 44.368C160.947 43.9947 160.862 43.6213 160.777 43.248C160.691 42.8747 160.617 42.512 160.553 42.16H160.505C160.515 42.5013 160.515 42.8747 160.505 43.28C160.505 43.6747 160.499 44.0747 160.489 44.48C160.478 44.8747 160.462 45.2587 160.441 45.632C160.43 45.9947 160.419 46.3147 160.409 46.592L160.233 50H157.993L158.681 39.92ZM170.678 39.92H174.326C174.934 39.92 175.483 39.9893 175.974 40.128C176.465 40.2667 176.881 40.4693 177.222 40.736C177.574 41.0027 177.841 41.328 178.022 41.712C178.214 42.0853 178.31 42.5173 178.31 43.008C178.31 43.5947 178.198 44.1013 177.974 44.528C177.75 44.9547 177.446 45.312 177.062 45.6C176.689 45.8773 176.246 46.0853 175.734 46.224C175.233 46.352 174.699 46.416 174.134 46.416H173.11V50H170.678V39.92ZM173.11 44.576H173.99C174.225 44.576 174.454 44.5493 174.678 44.496C174.902 44.4427 175.094 44.3627 175.254 44.256C175.425 44.1387 175.558 43.9893 175.654 43.808C175.761 43.6267 175.814 43.4027 175.814 43.136C175.814 42.6773 175.654 42.3307 175.334 42.096C175.025 41.8613 174.609 41.744 174.086 41.744H173.11V44.576ZM179.05 39.92H183.05C183.626 39.92 184.132 40.0053 184.57 40.176C185.018 40.336 185.386 40.56 185.674 40.848C185.972 41.136 186.196 41.472 186.346 41.856C186.495 42.24 186.57 42.6507 186.57 43.088C186.57 43.504 186.506 43.872 186.378 44.192C186.26 44.5013 186.106 44.7733 185.914 45.008C185.722 45.2427 185.514 45.4347 185.29 45.584C185.066 45.7333 184.858 45.8507 184.666 45.936L187.082 50H184.282L182.49 46.368H181.482V50H179.05V39.92ZM181.482 44.528H182.218C182.772 44.528 183.22 44.416 183.562 44.192C183.903 43.968 184.074 43.6053 184.074 43.104C184.074 42.688 183.935 42.3573 183.658 42.112C183.38 41.8667 182.98 41.744 182.458 41.744H181.482V44.528ZM190.442 39.92H193.034L196.666 50H194.09L193.402 47.84H190.01L189.322 50H186.778L190.442 39.92ZM190.538 46.08H192.842L192.458 44.864C192.33 44.4693 192.197 44.048 192.058 43.6C191.93 43.152 191.818 42.7413 191.722 42.368H191.69C191.583 42.7413 191.461 43.1467 191.322 43.584C191.183 44.0213 191.05 44.448 190.922 44.864L190.538 46.08ZM203.542 39.728C204.246 39.728 204.854 39.8027 205.366 39.952C205.878 40.0907 206.321 40.2613 206.694 40.464L206.15 42.24C205.734 42.0267 205.313 41.8613 204.886 41.744C204.47 41.616 204.07 41.552 203.686 41.552C203.195 41.552 202.822 41.6427 202.566 41.824C202.31 42.0053 202.182 42.2453 202.182 42.544C202.182 42.8853 202.305 43.136 202.55 43.296C202.795 43.4453 203.174 43.6053 203.686 43.776L204.63 44.08C205.003 44.208 205.35 44.368 205.67 44.56C205.99 44.7413 206.262 44.9547 206.486 45.2C206.721 45.4453 206.902 45.7227 207.03 46.032C207.158 46.3413 207.222 46.6773 207.222 47.04C207.222 47.4667 207.142 47.872 206.982 48.256C206.822 48.6293 206.577 48.96 206.246 49.248C205.926 49.536 205.515 49.7653 205.014 49.936C204.523 50.096 203.942 50.176 203.27 50.176C202.641 50.176 202.038 50.112 201.462 49.984C200.897 49.8453 200.374 49.6533 199.894 49.408L200.438 47.632C200.897 47.856 201.345 48.032 201.782 48.16C202.219 48.288 202.678 48.352 203.158 48.352C203.723 48.352 204.129 48.2613 204.374 48.08C204.63 47.888 204.758 47.632 204.758 47.312C204.758 47.2053 204.737 47.0987 204.694 46.992C204.651 46.8853 204.566 46.7787 204.438 46.672C204.321 46.5653 204.15 46.464 203.926 46.368C203.713 46.2613 203.435 46.1547 203.094 46.048L202.31 45.776C201.937 45.6373 201.59 45.4827 201.27 45.312C200.95 45.1413 200.673 44.9387 200.438 44.704C200.214 44.4693 200.038 44.1973 199.91 43.888C199.782 43.5787 199.718 43.2107 199.718 42.784C199.718 42.3467 199.798 41.9413 199.958 41.568C200.129 41.1947 200.374 40.8747 200.694 40.608C201.025 40.3307 201.425 40.1173 201.894 39.968C202.374 39.808 202.923 39.728 203.542 39.728ZM208.084 39.92H214.804V41.776H210.516V43.84H214.388V45.68H210.516V48.144H214.852V50H208.084V39.92ZM220.557 39.728C221.197 39.728 221.762 39.7813 222.253 39.888C222.754 39.9947 223.197 40.1387 223.581 40.32L223.085 41.92C222.722 41.7387 222.338 41.6107 221.933 41.536C221.538 41.4507 221.154 41.408 220.781 41.408C220.354 41.408 219.954 41.4773 219.581 41.616C219.208 41.7547 218.877 41.9733 218.589 42.272C218.312 42.56 218.093 42.928 217.933 43.376C217.773 43.824 217.693 44.3573 217.693 44.976C217.693 46.1067 217.938 46.976 218.429 47.584C218.93 48.1813 219.645 48.48 220.573 48.48C220.797 48.48 221 48.4693 221.181 48.448C221.362 48.4267 221.501 48.3947 221.597 48.352V46.16H220.013V44.368H223.933V49.552C223.517 49.7333 223.026 49.8827 222.461 50C221.896 50.1173 221.261 50.176 220.557 50.176C219.789 50.176 219.074 50.064 218.413 49.84C217.762 49.616 217.192 49.2853 216.701 48.848C216.21 48.4 215.826 47.856 215.549 47.216C215.272 46.5653 215.133 45.8187 215.133 44.976C215.133 44.1333 215.272 43.3867 215.549 42.736C215.826 42.0747 216.21 41.5253 216.701 41.088C217.192 40.64 217.762 40.304 218.413 40.08C219.074 39.8453 219.789 39.728 220.557 39.728ZM224.953 39.92H227.385V45.952C227.385 46.7093 227.54 47.296 227.849 47.712C228.158 48.128 228.638 48.336 229.289 48.336C229.929 48.336 230.388 48.1333 230.665 47.728C230.953 47.312 231.097 46.784 231.097 46.144V39.92H233.529V45.936C233.529 48.7627 232.116 50.176 229.289 50.176C227.945 50.176 226.884 49.824 226.105 49.12C225.337 48.416 224.953 47.328 224.953 45.856V39.92ZM234.84 39.92H238.84C239.416 39.92 239.923 40.0053 240.36 40.176C240.808 40.336 241.176 40.56 241.464 40.848C241.763 41.136 241.987 41.472 242.136 41.856C242.286 42.24 242.36 42.6507 242.36 43.088C242.36 43.504 242.296 43.872 242.168 44.192C242.051 44.5013 241.896 44.7733 241.704 45.008C241.512 45.2427 241.304 45.4347 241.08 45.584C240.856 45.7333 240.648 45.8507 240.456 45.936L242.872 50H240.072L238.28 46.368H237.272V50H234.84V39.92ZM237.272 44.528H238.008C238.563 44.528 239.011 44.416 239.352 44.192C239.694 43.968 239.864 43.6053 239.864 43.104C239.864 42.688 239.726 42.3573 239.448 42.112C239.171 41.8667 238.771 41.744 238.248 41.744H237.272V44.528ZM246.233 39.92H248.825L252.457 50H249.881L249.193 47.84H245.801L245.113 50H242.569L246.233 39.92ZM246.329 46.08H248.633L248.249 44.864C248.121 44.4693 247.987 44.048 247.849 43.6C247.721 43.152 247.609 42.7413 247.513 42.368H247.481C247.374 42.7413 247.251 43.1467 247.113 43.584C246.974 44.0213 246.841 44.448 246.713 44.864L246.329 46.08Z" fill="white"/>
</svg>
